<svg width="16" height="16" viewBox="0 0 16 16" fill="none" xmlns="http://www.w3.org/2000/svg">
<path fill-rule="evenodd" clip-rule="evenodd" d="M11.3334 1.33334C11.7016 1.33334 12 1.63182 12 2.00001V2.66668H12.6667C13.7713 2.66668 14.6667 3.56211 14.6667 4.66668V12.6667C14.6667 13.7712 13.7713 14.6667 12.6667 14.6667H3.33337C2.2288 14.6667 1.33337 13.7712 1.33337 12.6667V4.66668C1.33337 3.56211 2.2288 2.66668 3.33337 2.66668H4.00004V2.00001C4.00004 1.63182 4.29852 1.33334 4.66671 1.33334C5.0349 1.33334 5.33337 1.63182 5.33337 2.00001V2.66668H10.6667V2.00001C10.6667 1.63182 10.9652 1.33334 11.3334 1.33334ZM2.66671 8.00001V12.6667C2.66671 13.0349 2.96518 13.3333 3.33337 13.3333H12.6667C13.0349 13.3333 13.3334 13.0349 13.3334 12.6667V8.00001H2.66671ZM2.66671 6.66668H13.3334V4.66668C13.3334 4.29849 13.0349 4.00001 12.6667 4.00001H12V4.66668C12 5.03487 11.7016 5.33334 11.3334 5.33334C10.9652 5.33334 10.6667 5.03487 10.6667 4.66668V4.00001H5.33337V4.66668C5.33337 5.03487 5.0349 5.33334 4.66671 5.33334C4.29852 5.33334 4.00004 5.03487 4.00004 4.66668V4.00001H3.33337C2.96518 4.00001 2.66671 4.29849 2.66671 4.66668V6.66668Z" fill="#403DD5"/>
</svg>
